<svg preserveAspectRatio="none" data-bbox="56.945 56.065 80.231 92.678" xmlns="http://www.w3.org/2000/svg" viewBox="56.945 56.065 80.231 92.678" role="presentation" aria-hidden="true">
    <g>
        <path d="M97.238 113.109l7.514-10.557c2.43-3.129 3.908-5.808 5.985-9.537.603-1.088 2.058-4.493 3.632-6.877l.004-.01.189-.282c.548-.754 2.208-2.601 4.361-.994.216.209.436.403.657.583v.002c.366.298.736.561 1.104.788a1.6 1.6 0 0 0 .336.247c1.221.628 2.32.992 3.529 1.122 1.352.171 2.268-.001 2.268-.001 10.653-.974 12.772-18.751 3.022-22.142.626-3.767 2.914-5.804 7.337-5.804v-3.582c-6.614 0-10.623 3.076-11.588 8.853-.21.011-.425.027-.641.049-5.608.569-8.179 4.514-10.152 9.195h-.002v.003a73.17 73.17 0 0 0-.455 1.111c-.202.512-.399 1.033-.597 1.553C108.583 88.7 98.765 96.57 98.765 96.57L89.511 108h-.001c-4.193 5.976-8.984 12.615-12.994 18.304-3.957 5.609-10.672 14.237-5.236 22.439 8.606-11.914 17.139-23.905 25.958-35.605v-.029zm27.711-44.402c5.299-.917 7.899 2.99 8.04 6.545.39 9.882-13.884 11.43-14.96 2.804-.654-5.241 2.779-8.634 6.92-9.349zM98.944 102.37c1.197 0 2.164.893 2.164 1.994 0 1.098-.967 1.991-2.164 1.991-1.195 0-1.762-.894-1.762-1.991.001-1.101.567-1.994 1.762-1.994z" fill="white"></path>
        <path d="M90.337 90.836c.234.275.452.566.659.868.926 1.217 3.479 4.283 4.529 5.509.748.245.752-1.189 1.948-2.088-11.746-17.448-19.866-22.243-32.182-38.506-2.741-.025-8.812 2.363-8.317 5.646.275 1.794 2.476 2.689 4.201 4.704 5.004 5.842 8.309 9.9 13.326 15.577 3.688 4.169 6.577 9.206 12.173 6.378 1.62.031 2.756.839 3.663 1.912z" fill="white"></path>
        <path d="M107.391 104.667c-.821.243-3.356 3.717-3.356 3.717 12.445 16.876 14.34 19.141 21.188 37.293.312.091.617.166.923.239 1.266.235 3.543.298 5.002-1.787.232-.416.455-.828.644-1.233.036-.091.077-.169.112-.265.042-.104.09-.208.128-.312-6.628-18.323-9.854-21.192-24.641-37.652zm19.985 38.441c-.845 0-1.183-.686-1.183-1.531 0-.847.338-1.532 1.183-1.532a1.531 1.531 0 1 1 0 3.063z" fill="white"></path>
    </g>
</svg>